<svg width="150" height="150" viewBox="0 0 150 150" fill="none" xmlns="http://www.w3.org/2000/svg">
<path d="M69.1609 96.8426C67.2081 98.7952 64.0422 98.795 62.0897 96.8421L45.499 80.2481C43.67 78.4188 43.6702 75.4533 45.4993 73.6242C47.3283 71.7951 50.2937 71.7949 52.1231 73.6237L62.0892 83.5871C64.042 85.5393 67.2076 85.539 69.16 83.5864L97.8635 54.8791C99.6949 53.0474 102.665 53.0473 104.496 54.8789C106.328 56.7105 106.328 59.6801 104.496 61.5115L69.1609 96.8426Z" fill="#38B152"/>
<path d="M75 9.375C62.0206 9.375 49.3327 13.2238 38.5407 20.4348C27.7488 27.6458 19.3374 37.895 14.3704 49.8864C9.40343 61.8778 8.10384 75.0728 10.636 87.8028C13.1682 100.533 19.4183 112.226 28.5961 121.404C37.774 130.582 49.4672 136.832 62.1972 139.364C74.9272 141.896 88.1222 140.597 100.114 135.63C112.105 130.663 122.354 122.251 129.565 111.459C136.776 100.667 140.625 87.9794 140.625 75C140.625 57.5952 133.711 40.9032 121.404 28.5961C109.097 16.289 92.4049 9.375 75 9.375ZM75 131.25C63.8748 131.25 52.9995 127.951 43.7492 121.77C34.4989 115.589 27.2892 106.804 23.0318 96.5259C18.7744 86.2476 17.6604 74.9376 19.8309 64.0262C22.0013 53.1147 27.3586 43.0919 35.2253 35.2252C43.092 27.3585 53.1148 22.0012 64.0262 19.8308C74.9376 17.6604 86.2476 18.7743 96.526 23.0318C106.804 27.2892 115.589 34.4989 121.77 43.7492C127.951 52.9994 131.25 63.8748 131.25 75C131.25 89.9184 125.324 104.226 114.775 114.775C104.226 125.324 89.9185 131.25 75 131.25Z" fill="#38B152"/>
</svg>
